<?xml version="1.0" encoding="UTF-8" standalone="no"?>
<!DOCTYPE svg PUBLIC "-//W3C//DTD SVG 1.1//EN" "http://www.w3.org/Graphics/SVG/1.1/DTD/svg11.dtd">
<svg width="100%" height="100%" viewBox="0 0 40 40" version="1.1" xmlns="http://www.w3.org/2000/svg" xmlns:xlink="http://www.w3.org/1999/xlink" xml:space="preserve" xmlns:serif="http://www.serif.com/" style="fill-rule:evenodd;clip-rule:evenodd;stroke-miterlimit:10;">
    <g transform="matrix(0.765249,0,0,0.765249,3.89834,5.06522)">
        <path d="M0,39L40,39" style="fill:none;fill-rule:nonzero;stroke:black;stroke-width:2px;"/>
    </g>
    <g>
        <g transform="matrix(0.765249,0,0,0.765249,3.89834,5.06522)">
            <path d="M15.8,8.6L7.7,15.3C7.5,15.5 7.4,15.8 7.6,16C9.5,17.8 12.6,17.8 14.9,15.9C17.2,14 17.9,10.9 16.5,8.7C16.4,8.5 16,8.4 15.8,8.6Z" style="fill:none;fill-rule:nonzero;stroke:black;stroke-width:2px;"/>
        </g>
        <g transform="matrix(0.765249,0,0,0.765249,3.89834,5.06522)">
            <path d="M11.7,11.9L9.5,9.2" style="fill:none;fill-rule:nonzero;stroke:black;stroke-width:2px;"/>
        </g>
    </g>
    <g transform="matrix(0.765249,0,0,0.765249,3.89834,5.06522)">
        <path d="M14.2,16.4L15.8,19.7" style="fill:none;fill-rule:nonzero;stroke:black;stroke-width:2px;"/>
    </g>
    <g transform="matrix(0.765249,0,0,0.765249,3.89834,5.06522)">
        <path d="M29.4,32.1L23.4,20.9C23.1,20.4 22.6,20.1 22,20.1L9.6,20.1C9,20.1 8.5,20.4 8.2,20.9L2.2,32.1C2.1,32.4 2,32.6 2,32.9L2,39L29.6,39L29.6,32.9C29.6,32.6 29.5,32.4 29.4,32.1Z" style="fill:none;fill-rule:nonzero;stroke:rgb(0,0,4);stroke-width:2px;"/>
    </g>
    <g transform="matrix(0.765249,0,0,0.765249,3.89834,5.06522)">
        <path d="M18,27.1L13.7,27.1C13.2,27.1 12.7,27.5 12.7,28.1L12.7,39.1L19,39.1L19,28C18.9,27.5 18.5,27.1 18,27.1Z" style="fill:none;fill-rule:nonzero;stroke:rgb(0,0,4);stroke-width:2px;"/>
    </g>
    <g transform="matrix(0.765249,0,0,0.765249,3.89834,5.06522)">
        <circle cx="15.8" cy="31.1" r="1.1" style="fill:rgb(0,0,4);"/>
    </g>
    <g transform="matrix(0.765249,0,0,0.765249,3.89834,5.06522)">
        <circle cx="32.5" cy="18.4" r="1.1" style="fill:rgb(0,0,4);"/>
    </g>
    <g transform="matrix(0.765249,0,0,0.765249,3.89834,5.06522)">
        <circle cx="32.5" cy="22.4" r="1.1" style="fill:rgb(0,0,4);"/>
    </g>
    <g transform="matrix(0.765249,0,0,0.765249,3.89834,5.06522)">
        <circle cx="32.5" cy="26.3" r="1.1" style="fill:rgb(0,0,4);"/>
    </g>
    <g transform="matrix(0.765249,0,0,0.765249,3.89834,5.06522)">
        <path d="M5.1,26.7L7.6,26.7C8.1,26.7 8.5,27.1 8.5,27.6L8.5,31.3C8.5,31.8 8.9,32.2 9.4,32.2L12.6,32.2" style="fill:none;fill-rule:nonzero;stroke:black;stroke-width:2px;"/>
    </g>
    <g transform="matrix(0.765249,0,0,0.765249,3.89834,5.06522)">
        <path d="M26.5,26.7L24,26.7C23.5,26.7 23.1,27.1 23.1,27.6L23.1,31.3C23.1,31.8 22.7,32.2 22.2,32.2L19,32.2" style="fill:none;fill-rule:nonzero;stroke:black;stroke-width:2px;"/>
    </g>
    <g transform="matrix(0.765249,0,0,0.765249,3.89834,5.06522)">
        <path d="M7.1,23L24.5,23" style="fill:none;fill-rule:nonzero;stroke:black;stroke-width:2px;"/>
    </g>
    <g transform="matrix(0.765249,0,0,0.765249,3.89834,5.06522)">
        <path d="M28.5,25.2L28.5,12.7" style="fill:none;fill-rule:nonzero;stroke:black;stroke-width:2px;"/>
    </g>
    <g transform="matrix(0.765249,0,0,0.765249,3.89834,5.06522)">
        <path d="M36.6,12.7L36.6,39" style="fill:none;fill-rule:nonzero;stroke:black;stroke-width:2px;"/>
    </g>
    <g transform="matrix(0.765249,0,0,0.765249,3.89834,5.06522)">
        <path d="M39.2,9.2L39.2,12.9C39.2,13.2 38.9,13.5 38.6,13.5L26.4,13.5C26.1,13.5 25.8,13.2 25.8,12.9L25.8,9.2C25.8,8.9 26.1,8.6 26.4,8.6L38.6,8.6C38.9,8.6 39.2,8.8 39.2,9.2Z" style="fill:none;fill-rule:nonzero;stroke:black;stroke-width:2px;"/>
    </g>
    <g transform="matrix(0.765249,0,0,0.765249,3.89834,5.06522)">
        <path d="M38,8.6L27,8.6C27,5.6 29.5,3.1 32.5,3.1C35.5,3.1 38,5.5 38,8.6Z" style="fill:none;fill-rule:nonzero;stroke:black;stroke-width:2px;"/>
    </g>
    <g transform="matrix(0.765249,0,0,0.765249,3.89834,5.06522)">
        <path d="M32.5,3.1L32.5,0" style="fill:none;fill-rule:nonzero;stroke:black;stroke-width:2px;"/>
    </g>
</svg>
