<?xml version="1.0" encoding="UTF-8" standalone="no"?>
<!DOCTYPE svg PUBLIC "-//W3C//DTD SVG 1.1//EN" "http://www.w3.org/Graphics/SVG/1.1/DTD/svg11.dtd">
<svg width="100%" height="100%" viewBox="0 0 19 257" version="1.1" xmlns="http://www.w3.org/2000/svg" xmlns:xlink="http://www.w3.org/1999/xlink" xml:space="preserve" xmlns:serif="http://www.serif.com/" style="fill-rule:evenodd;clip-rule:evenodd;stroke-linecap:round;stroke-linejoin:round;">
    <g id="g44517" transform="matrix(0.688775,0,0,0.688775,-497.94,-442.872)">
        <rect id="rect41673" x="727.379" y="711.918" width="18.667" height="292" style="fill:url(#_Linear1);"/>
        <rect id="rect41675" x="727.379" y="759.564" width="18.667" height="35.7" style="fill:url(#_Linear2);"/>
        <rect id="rect41677" x="727.379" y="989.873" width="18.667" height="14.108" style="fill:url(#_Linear3);"/>
        <path id="path41679" d="M728.244,1008.77C728.213,1008.72 728.165,1008.58 728.165,1008.54L728.165,1008.52L731.555,1008.52L731.568,1008.58C731.593,1008.69 731.593,1008.72 731.566,1008.77L731.54,1008.81L728.269,1008.81L728.244,1008.77L728.244,1008.77Z" style="fill:rgb(247,247,247);fill-rule:nonzero;"/>
        <path id="path41681" d="M732.034,1008.75C732.005,1008.7 731.955,1008.55 731.955,1008.53C731.955,1008.52 732.682,1008.52 733.702,1008.52L735.449,1008.52L735.442,1008.55C735.425,1008.62 735.398,1008.7 735.37,1008.75L735.341,1008.81L732.066,1008.81L732.034,1008.75L732.034,1008.75Z" style="fill:rgb(247,247,247);fill-rule:nonzero;"/>
        <path id="path41683" d="M735.744,1008.88C735.744,1008.88 735.756,1008.85 735.77,1008.81C735.794,1008.75 735.82,1008.65 735.839,1008.55L735.846,1008.52L736.722,1008.52C737.548,1008.52 737.6,1008.52 737.605,1008.54C737.608,1008.55 737.614,1008.58 737.618,1008.61C737.622,1008.63 737.642,1008.71 737.663,1008.77C737.683,1008.83 737.7,1008.89 737.7,1008.89L736.722,1008.89C736.185,1008.89 735.745,1008.89 735.745,1008.88L735.744,1008.88Z" style="fill:rgb(247,247,247);fill-rule:nonzero;"/>
        <path id="path41685" d="M738.077,1008.75C738.048,1008.7 737.998,1008.55 737.998,1008.53C737.998,1008.52 738.725,1008.52 739.744,1008.52C741.045,1008.52 741.49,1008.52 741.49,1008.53C741.49,1008.56 741.444,1008.69 741.415,1008.75L741.384,1008.81L738.109,1008.81L738.077,1008.75L738.077,1008.75Z" style="fill:rgb(247,247,247);fill-rule:nonzero;"/>
        <path id="path41687" d="M741.887,1008.78C741.853,1008.73 741.851,1008.71 741.87,1008.61C741.88,1008.57 741.887,1008.53 741.887,1008.52C741.887,1008.52 742.653,1008.51 743.589,1008.51L745.291,1008.51L745.284,1008.54C745.27,1008.61 745.233,1008.71 745.207,1008.76L745.18,1008.81L741.909,1008.81L741.887,1008.77L741.887,1008.78Z" style="fill:rgb(247,247,247);fill-rule:nonzero;"/>
        <path id="path41689" d="M727.411,1003.88L745.978,1003.92L745.988,1007.19L745.291,1008.94L728.123,1008.89L727.426,1007.14L727.411,1003.88Z" style="fill:url(#_Linear4);fill-rule:nonzero;"/>
        <g id="g41703" transform="matrix(1,0,0,1,282.255,-18.0048)">
            <g id="g41695">
                <path id="path41691" d="M449.434,1029.6C449.242,1029.12 448.988,1028.57 448.735,1028.07L448.637,1027.88L448.677,1027.8C448.749,1027.67 448.912,1027.38 449.01,1027.22L449.046,1027.16L449.243,1027.16C449.352,1027.16 449.571,1027.16 449.729,1027.16L450.016,1027.16L450.054,1027.22C450.139,1027.36 450.356,1027.74 450.408,1027.84L450.426,1027.88L450.374,1027.98C450.098,1028.51 449.822,1029.11 449.6,1029.66L449.563,1029.75L449.498,1029.75L449.434,1029.6L449.434,1029.6Z" style="fill:rgb(51,51,51);fill-rule:nonzero;stroke:white;stroke-opacity:0;stroke-width:0.4px;"/>
                <path id="path41693" d="M459.24,1029.44C459.048,1028.97 458.795,1028.41 458.541,1027.92L458.443,1027.72L458.484,1027.65C458.555,1027.52 458.718,1027.23 458.817,1027.07L458.852,1027.01L459.05,1027.01C459.159,1027.01 459.377,1027.01 459.535,1027.01L459.822,1027.01L459.86,1027.07C459.945,1027.21 460.162,1027.59 460.214,1027.69L460.232,1027.73L460.181,1027.83C459.905,1028.36 459.629,1028.96 459.407,1029.51L459.369,1029.6L459.304,1029.6L459.241,1029.44L459.24,1029.44Z" style="fill:rgb(51,51,51);fill-rule:nonzero;stroke:white;stroke-opacity:0;stroke-width:0.4px;"/>
            </g>
            <path id="path41697" d="M453.362,1028.9C453.442,1028.75 453.591,1028.47 453.693,1028.29L453.879,1027.95L453.66,1027.57L453.441,1027.18L453.065,1027.18C452.744,1027.18 452.689,1027.17 452.689,1027.14C452.689,1027.1 452.658,1027.1 452.526,1027.1C452.373,1027.12 452.361,1027.12 452.31,1027.2L452.257,1027.3L452.538,1027.84C452.693,1028.14 452.902,1028.56 453.002,1028.78C453.102,1029 453.191,1029.18 453.2,1029.19C453.209,1029.19 453.282,1029.06 453.362,1028.9L453.362,1028.9Z" style="fill:rgb(51,51,51);fill-rule:nonzero;stroke:white;stroke-opacity:0;stroke-width:0.4px;"/>
            <path id="path41699" d="M455.63,1028.88C455.551,1028.73 455.402,1028.45 455.3,1028.27L455.114,1027.93L455.333,1027.55L455.552,1027.16L455.928,1027.16C456.249,1027.16 456.304,1027.15 456.304,1027.12C456.304,1027.08 456.335,1027.08 456.466,1027.08C456.62,1027.1 456.632,1027.1 456.682,1027.19L456.736,1027.28L456.454,1027.82C456.3,1028.12 456.091,1028.54 455.991,1028.76C455.891,1028.98 455.802,1029.17 455.792,1029.17C455.783,1029.17 455.71,1029.04 455.63,1028.88L455.63,1028.88Z" style="fill:rgb(51,51,51);fill-rule:nonzero;stroke:white;stroke-opacity:0;stroke-width:0.4px;"/>
            <path id="path41701" d="M452.12,1033.15C452.12,1033.13 452.203,1032.77 452.214,1032.72C452.388,1030.48 452.568,1030.94 453.278,1029.58C453.278,1029.51 453.762,1028.53 454.031,1028.06L454.168,1027.82L454.168,1027.19L454.839,1027.19L454.839,1027.82L454.983,1028.08C455.133,1028.34 455.549,1029.16 455.645,1029.38L455.701,1029.51C456.583,1031.91 455.92,1029.8 456.828,1032.9C456.851,1033.01 456.87,1033.11 456.87,1033.12C456.87,1033.16 456.866,1033.16 454.495,1033.16C453.188,1033.16 452.12,1033.16 452.12,1033.15L452.12,1033.15Z" style="fill:rgb(51,51,51);fill-rule:nonzero;stroke:white;stroke-opacity:0;stroke-width:0.4px;"/>
        </g>
        <path id="path41705" d="M727.4,759.61L746.046,759.61" style="fill:none;fill-rule:nonzero;stroke:black;stroke-width:0.4px;stroke-linecap:butt;stroke-linejoin:miter;"/>
        <path id="path41707" d="M740.254,1009.01L739.236,1009.01" style="fill:none;fill-rule:nonzero;stroke:black;stroke-width:0.4px;stroke-linecap:butt;stroke-linejoin:miter;"/>
        <path id="path41709" d="M729.346,1014.33L734.258,1014.33" style="fill:none;fill-rule:nonzero;stroke:black;stroke-width:0.4px;stroke-linecap:butt;stroke-linejoin:miter;"/>
        <path id="path41711" d="M731.293,1009.01L732.311,1009.01" style="fill:none;fill-rule:nonzero;stroke:black;stroke-width:0.4px;stroke-linecap:butt;stroke-linejoin:miter;"/>
        <path id="path41713" d="M732.752,1009.84C732.612,1009.56 732.465,1009.28 732.311,1009.01" style="fill:none;fill-rule:nonzero;stroke:black;stroke-width:0.4px;stroke-linecap:butt;stroke-linejoin:miter;"/>
        <path id="path41715" d="M731.293,1009.01C731.139,1009.28 730.992,1009.56 730.853,1009.84" style="fill:none;fill-rule:nonzero;stroke:black;stroke-width:0.4px;stroke-linecap:butt;stroke-linejoin:miter;"/>
        <path id="path41717" d="M734.675,1009.01L735.439,1009.01" style="fill:none;fill-rule:nonzero;stroke:black;stroke-width:0.4px;stroke-linecap:butt;stroke-linejoin:miter;"/>
        <path id="path41719" d="M736.184,1009.94C736.043,1009.65 735.894,1009.37 735.737,1009.09" style="fill:none;fill-rule:nonzero;stroke:black;stroke-width:0.4px;stroke-linecap:butt;stroke-linejoin:miter;"/>
        <path id="path41721" d="M734.675,1009.01C734.596,1009.15 734.518,1009.29 734.443,1009.43" style="fill:none;fill-rule:nonzero;stroke:black;stroke-width:0.4px;stroke-linecap:butt;stroke-linejoin:miter;"/>
        <path id="path41723" d="M744.099,1014.33L739.188,1014.33" style="fill:none;fill-rule:nonzero;stroke:black;stroke-width:0.4px;stroke-linecap:butt;stroke-linejoin:miter;"/>
        <path id="path41725" d="M742.152,1009.01L741.135,1009.01" style="fill:none;fill-rule:nonzero;stroke:black;stroke-width:0.4px;stroke-linecap:butt;stroke-linejoin:miter;"/>
        <path id="path41727" d="M741.135,1009.01C740.98,1009.28 740.833,1009.56 740.694,1009.84" style="fill:none;fill-rule:nonzero;stroke:black;stroke-width:0.4px;stroke-linecap:butt;stroke-linejoin:miter;"/>
        <path id="path41729" d="M742.593,1009.84C742.454,1009.56 742.307,1009.28 742.152,1009.01" style="fill:none;fill-rule:nonzero;stroke:black;stroke-width:0.4px;stroke-linecap:butt;stroke-linejoin:miter;"/>
        <path id="path41731" d="M738.77,1009.01L738.006,1009.01" style="fill:none;fill-rule:nonzero;stroke:black;stroke-width:0.4px;stroke-linecap:butt;stroke-linejoin:miter;"/>
        <path id="path41733" d="M735.439,1009.01C735.59,1008.82 735.667,1008.57 735.655,1008.33" style="fill:none;fill-rule:nonzero;stroke:black;stroke-width:0.4px;stroke-linecap:butt;stroke-linejoin:miter;"/>
        <path id="path41735" d="M731.962,1009.01L735.439,1009.01" style="fill:none;fill-rule:nonzero;stroke:black;stroke-width:0.4px;stroke-linecap:butt;stroke-linejoin:miter;"/>
        <path id="path41737" d="M737.79,1008.33C737.779,1008.57 737.855,1008.82 738.006,1009.01" style="fill:none;fill-rule:nonzero;stroke:black;stroke-width:0.4px;stroke-linecap:butt;stroke-linejoin:miter;"/>
        <path id="path41739" d="M741.483,1009.01C741.634,1008.82 741.711,1008.57 741.699,1008.33" style="fill:none;fill-rule:nonzero;stroke:black;stroke-width:0.4px;stroke-linecap:butt;stroke-linejoin:miter;"/>
        <path id="path41741" d="M735.737,1009.09L737.709,1009.09" style="fill:none;fill-rule:nonzero;stroke:black;stroke-width:0.4px;stroke-linecap:butt;stroke-linejoin:miter;"/>
        <path id="path41743" d="M734.93,1009.01C734.947,1009.04 734.965,1009.06 734.984,1009.09" style="fill:none;fill-rule:nonzero;stroke:black;stroke-width:0.4px;stroke-linecap:butt;stroke-linejoin:miter;"/>
        <path id="path41745" d="M738.461,1009.09C738.481,1009.06 738.499,1009.04 738.516,1009.01" style="fill:none;fill-rule:nonzero;stroke:black;stroke-width:0.4px;stroke-linecap:butt;stroke-linejoin:miter;"/>
        <path id="path41747" d="M734.984,1009.09L738.461,1009.09" style="fill:none;fill-rule:nonzero;stroke:black;stroke-width:0.4px;stroke-linecap:butt;stroke-linejoin:miter;"/>
        <path id="path41749" d="M737.759,1009.09C737.602,1009.37 737.453,1009.65 737.312,1009.94" style="fill:none;fill-rule:nonzero;stroke:black;stroke-width:0.4px;stroke-linecap:butt;stroke-linejoin:miter;"/>
        <path id="path41751" d="M737.759,1009.09C737.602,1009.37 737.453,1009.65 737.312,1009.94" style="fill:none;fill-rule:nonzero;stroke:black;stroke-width:0.4px;stroke-linecap:butt;stroke-linejoin:miter;"/>
        <path id="path41753" d="M739.028,1009.39C738.96,1009.26 738.891,1009.13 738.82,1009.01" style="fill:none;fill-rule:nonzero;stroke:black;stroke-width:0.4px;stroke-linecap:butt;stroke-linejoin:miter;"/>
        <path id="path41755" d="M746.046,711.986L746.046,999.861" style="fill:none;fill-rule:nonzero;stroke:black;stroke-width:0.4px;stroke-linecap:butt;stroke-linejoin:miter;"/>
        <path id="path41757" d="M734.469,1014.33C734.403,1014.6 734.344,1014.88 734.292,1015.16L739.203,1015.16C739.151,1014.88 739.092,1014.6 739.026,1014.33" style="fill:none;fill-rule:nonzero;stroke:black;stroke-width:0.4px;stroke-linecap:butt;stroke-linejoin:miter;"/>
        <path id="path41759" d="M735.39,1011.55C735.641,1010.96 735.924,1010.39 736.239,1009.84L736.239,1009.09" style="fill:none;fill-rule:nonzero;stroke:black;stroke-width:0.4px;stroke-linecap:butt;stroke-linejoin:miter;"/>
        <path id="path41761" d="M737.257,1009.09L737.257,1009.84C737.56,1010.37 737.834,1010.92 738.079,1011.49" style="fill:none;fill-rule:nonzero;stroke:black;stroke-width:0.4px;stroke-linecap:butt;stroke-linejoin:miter;"/>
        <path id="path41763" d="M731.802,1012.15C731.445,1011.06 730.98,1010.01 730.413,1009.01L729.395,1009.01C728.456,1010.66 727.798,1012.46 727.448,1014.33L732.359,1014.33" style="fill:rgb(51,51,51);fill-rule:nonzero;stroke:black;stroke-width:0.4px;stroke-linecap:butt;stroke-linejoin:miter;"/>
        <path id="path41765" d="M741.643,1008.71C741.68,1008.82 741.734,1008.92 741.804,1009.01L745.281,1009.01C745.432,1008.82 745.508,1008.57 745.497,1008.33" style="fill:none;fill-rule:nonzero;stroke:black;stroke-width:0.4px;stroke-linecap:butt;stroke-linejoin:miter;"/>
        <path id="path41767" d="M741.086,1014.33L745.998,1014.33C745.648,1012.46 744.99,1010.66 744.051,1009.01L743.033,1009.01C742.466,1010.01 742,1011.06 741.643,1012.15" style="fill:rgb(51,51,51);fill-rule:nonzero;stroke:black;stroke-width:0.4px;stroke-linecap:butt;stroke-linejoin:miter;"/>
        <path id="path41769" d="M733.192,1009.01C732.253,1010.66 731.595,1012.46 731.245,1014.33L736.157,1014.33C735.806,1012.46 735.148,1010.66 734.21,1009.01L733.192,1009.01Z" style="fill:rgb(51,51,51);fill-rule:nonzero;stroke:black;stroke-width:0.4px;stroke-linecap:butt;stroke-linejoin:miter;"/>
        <path id="path41771" d="M727.4,998.534L727.4,711.986" style="fill:none;fill-rule:nonzero;stroke:black;stroke-width:0.4px;stroke-linecap:butt;stroke-linejoin:miter;"/>
        <path id="path41773" d="M746.046,998.507L746.046,1006.82C746.021,1007.35 745.852,1007.88 745.557,1008.33L727.889,1008.33C727.593,1007.88 727.424,1007.35 727.4,1006.82L727.4,998.507" style="fill:none;fill-rule:nonzero;stroke:black;stroke-width:0.4px;stroke-linecap:butt;stroke-linejoin:miter;"/>
        <path id="path41775" d="M740.254,1009.01C741.192,1010.66 741.85,1012.46 742.201,1014.33L737.289,1014.33C737.639,1012.46 738.297,1010.66 739.236,1009.01" style="fill:rgb(51,51,51);fill-rule:nonzero;stroke:black;stroke-width:0.4px;stroke-linecap:butt;stroke-linejoin:miter;"/>
        <path id="path41777" d="M738.006,1009.01L741.483,1009.01" style="fill:none;fill-rule:nonzero;stroke:black;stroke-width:0.4px;stroke-linecap:butt;stroke-linejoin:miter;"/>
        <path id="path41779" d="M727.949,1008.33C727.938,1008.57 728.014,1008.82 728.165,1009.01L731.642,1009.01C731.711,1008.92 731.765,1008.82 731.802,1008.71" style="fill:none;fill-rule:nonzero;stroke:black;stroke-width:0.4px;stroke-linecap:butt;stroke-linejoin:miter;"/>
        <path id="path41781" d="M731.746,1008.33C731.735,1008.57 731.811,1008.82 731.962,1009.01" style="fill:none;fill-rule:nonzero;stroke:black;stroke-width:0.4px;stroke-linecap:butt;stroke-linejoin:miter;"/>
        <path id="path41783" d="M727.4,795.303L746.046,795.303" style="fill:none;fill-rule:nonzero;stroke:black;stroke-width:0.4px;stroke-linecap:butt;stroke-linejoin:miter;"/>
        <g id="g41805" transform="matrix(1,0,0,1,554.571,-60)">
            <path id="path41785" d="M183.561,941.896L179.693,941.896L179.55,942.003L179.55,945.444L180.62,945.444L180.62,944.154L180.723,944.062L183.561,944.062C184.278,944.062 184.614,943.869 184.614,943.374L184.614,942.584C184.614,942.089 184.278,941.896 183.561,941.896M183.561,943.168C183.561,943.401 183.407,943.449 183.071,943.449L180.734,943.449L180.62,943.339L180.62,942.601L180.722,942.508L183.071,942.508C183.407,942.508 183.561,942.556 183.561,942.79L183.561,943.168L183.561,943.168Z" style="fill:rgb(0,82,136);fill-rule:nonzero;"/>
            <g id="polyline41787" transform="matrix(0.137944,0,0,0.137944,167.653,946.989)">
                <path d="M99.081,19.813L105.761,29.6L105.391,30.548L90.618,30.548L86.847,35.187L108.837,35.187L110.361,36.115L113.775,40.824L122.659,40.824L103.186,14.775" style="fill:rgb(0,82,136);fill-rule:nonzero;"/>
            </g>
            <g id="g41793" transform="matrix(0.137944,0,0,0.137944,154.895,962.72)">
                <path id="polyline41789" d="M187.418,35.757L187.418,28.833L188.217,28.143L203.079,28.143L203.079,23.734L179.524,23.734L179.524,40.823L214.27,40.823L214.27,36.435L188.252,36.435" style="fill:rgb(0,82,136);fill-rule:nonzero;"/>
                <rect id="rect41791" x="179.524" y="15.094" width="35.113" height="4.848" style="fill:rgb(0,82,136);"/>
            </g>
            <path id="path41795" d="M180.733,957.402L184.635,957.402C184.575,956.906 184.267,956.768 183.486,956.768L180.691,956.768C179.81,956.768 179.529,956.94 179.529,957.607L179.529,959.479C179.529,960.146 179.81,960.318 180.691,960.318L183.486,960.318C184.278,960.318 184.582,960.169 184.602,959.655L180.733,959.655L180.618,959.547L180.618,957.474" style="fill:rgb(0,82,136);fill-rule:nonzero;"/>
            <path id="path41797" d="M183.519,935.102L180.681,935.102L180.597,935.01L180.597,934.403L180.68,934.338L184.507,934.338L184.559,934.21C184.429,933.875 184.091,933.719 183.465,933.719L180.806,933.719C179.926,933.719 179.644,933.891 179.644,934.558L179.644,934.95C179.644,935.618 179.926,935.789 180.806,935.789L183.639,935.789L183.728,935.868L183.728,936.502L183.655,936.601L180.415,936.601L180.415,936.598L179.567,936.598C179.567,936.598 179.47,936.647 179.473,936.67C179.546,937.136 179.864,937.268 180.624,937.268L183.52,937.268C184.4,937.268 184.69,937.096 184.69,936.429L184.69,935.94C184.69,935.274 184.4,935.102 183.52,935.102" style="fill:rgb(0,82,136);fill-rule:nonzero;"/>
            <path id="path41799" d="M180.787,973.03L179.193,973.03L179.107,973.195L180.876,974.485C181.211,974.291 181.576,974.094 181.973,973.9" style="fill:rgb(0,82,136);fill-rule:nonzero;"/>
            <path id="path41801" d="M182.214,975.46L183.77,976.594L185.382,976.594L185.449,976.444L183.127,974.744C182.818,974.97 182.514,975.21 182.214,975.46" style="fill:rgb(0,82,136);fill-rule:nonzero;"/>
            <path id="path41803" d="M180.549,976.592L179.108,976.592L178.986,976.401C179.966,975.454 184.442,971.897 190.268,971.445C190.268,971.445 185.172,972.011 180.549,976.592" style="fill:rgb(167,169,172);fill-rule:nonzero;"/>
        </g>
        <g id="g41869" transform="matrix(1,0,0,1,466.589,14)">
            <g id="g41843" transform="matrix(0.00124141,0,0,0.00132576,265.515,803.697)">
                <rect id="rect41807" x="0" y="0" width="7410" height="3900" style="fill:rgb(178,34,52);"/>
                <path id="path41809" d="M0,450L7410,450M7410,1050L0,1050M0,1650L7410,1650M7410,2250L0,2250M0,2850L7410,2850M7410,3450L0,3450" style="fill-rule:nonzero;stroke:white;stroke-width:300px;stroke-linecap:butt;stroke-linejoin:miter;"/>
                <rect id="rect41811" x="0" y="0" width="2964" height="2100" style="fill:rgb(60,59,110);"/>
                <g id="g41841">
                    <g id="g41833">
                        <g id="g41829">
                            <g id="g41825">
                                <g id="g41821">
                                    <path id="path41813" d="M247,90L317.534,307.082L132.873,172.918L361.127,172.918L176.466,307.082L247,90Z" style="fill:white;fill-rule:nonzero;"/>
                                    <g id="use41815" transform="matrix(1,0,0,1,0,420)">
                                        <path d="M247,90L317.534,307.082L132.873,172.918L361.127,172.918L176.466,307.082L247,90Z" style="fill:white;fill-rule:nonzero;"/>
                                    </g>
                                    <g id="use41817" transform="matrix(1,0,0,1,0,840)">
                                        <path d="M247,90L317.534,307.082L132.873,172.918L361.127,172.918L176.466,307.082L247,90Z" style="fill:white;fill-rule:nonzero;"/>
                                    </g>
                                    <g id="use41819" transform="matrix(1,0,0,1,0,1260)">
                                        <path d="M247,90L317.534,307.082L132.873,172.918L361.127,172.918L176.466,307.082L247,90Z" style="fill:white;fill-rule:nonzero;"/>
                                    </g>
                                </g>
                                <g id="use41823" transform="matrix(1,0,0,1,0,1680)">
                                    <path d="M247,90L317.534,307.082L132.873,172.918L361.127,172.918L176.466,307.082L247,90Z" style="fill:white;fill-rule:nonzero;"/>
                                </g>
                            </g>
                            <g id="use41827" transform="matrix(1,0,0,1,247,210)">
                                <path id="s" d="M247,90L317.534,307.082L132.873,172.918L361.127,172.918L176.466,307.082L247,90Z" style="fill:white;fill-rule:nonzero;"/>
                                <g id="use11040" transform="matrix(1,0,0,1,0,420)">
                                    <path d="M247,90L317.534,307.082L132.873,172.918L361.127,172.918L176.466,307.082L247,90Z" style="fill:white;fill-rule:nonzero;"/>
                                </g>
                                <g id="use11042" transform="matrix(1,0,0,1,0,840)">
                                    <path d="M247,90L317.534,307.082L132.873,172.918L361.127,172.918L176.466,307.082L247,90Z" style="fill:white;fill-rule:nonzero;"/>
                                </g>
                                <g id="use11044" transform="matrix(1,0,0,1,0,1260)">
                                    <path d="M247,90L317.534,307.082L132.873,172.918L361.127,172.918L176.466,307.082L247,90Z" style="fill:white;fill-rule:nonzero;"/>
                                </g>
                            </g>
                        </g>
                        <g id="use41831" transform="matrix(1,0,0,1,494,0)">
                            <g id="s5">
                                <g id="s4">
                                    <path id="s1" serif:id="s" d="M247,90L317.534,307.082L132.873,172.918L361.127,172.918L176.466,307.082L247,90Z" style="fill:white;fill-rule:nonzero;"/>
                                    <g id="use110401" serif:id="use11040" transform="matrix(1,0,0,1,0,420)">
                                        <path d="M247,90L317.534,307.082L132.873,172.918L361.127,172.918L176.466,307.082L247,90Z" style="fill:white;fill-rule:nonzero;"/>
                                    </g>
                                    <g id="use110421" serif:id="use11042" transform="matrix(1,0,0,1,0,840)">
                                        <path d="M247,90L317.534,307.082L132.873,172.918L361.127,172.918L176.466,307.082L247,90Z" style="fill:white;fill-rule:nonzero;"/>
                                    </g>
                                    <g id="use110441" serif:id="use11044" transform="matrix(1,0,0,1,0,1260)">
                                        <path d="M247,90L317.534,307.082L132.873,172.918L361.127,172.918L176.466,307.082L247,90Z" style="fill:white;fill-rule:nonzero;"/>
                                    </g>
                                </g>
                                <g id="use11046" transform="matrix(1,0,0,1,0,1680)">
                                    <path d="M247,90L317.534,307.082L132.873,172.918L361.127,172.918L176.466,307.082L247,90Z" style="fill:white;fill-rule:nonzero;"/>
                                </g>
                            </g>
                            <g id="use11048" transform="matrix(1,0,0,1,247,210)">
                                <path id="s2" serif:id="s" d="M247,90L317.534,307.082L132.873,172.918L361.127,172.918L176.466,307.082L247,90Z" style="fill:white;fill-rule:nonzero;"/>
                                <g id="use110402" serif:id="use11040" transform="matrix(1,0,0,1,0,420)">
                                    <path d="M247,90L317.534,307.082L132.873,172.918L361.127,172.918L176.466,307.082L247,90Z" style="fill:white;fill-rule:nonzero;"/>
                                </g>
                                <g id="use110422" serif:id="use11042" transform="matrix(1,0,0,1,0,840)">
                                    <path d="M247,90L317.534,307.082L132.873,172.918L361.127,172.918L176.466,307.082L247,90Z" style="fill:white;fill-rule:nonzero;"/>
                                </g>
                                <g id="use110442" serif:id="use11044" transform="matrix(1,0,0,1,0,1260)">
                                    <path d="M247,90L317.534,307.082L132.873,172.918L361.127,172.918L176.466,307.082L247,90Z" style="fill:white;fill-rule:nonzero;"/>
                                </g>
                            </g>
                        </g>
                    </g>
                    <g id="use41835" transform="matrix(1,0,0,1,988,0)">
                        <g id="s9">
                            <g id="s51" serif:id="s5">
                                <g id="s41" serif:id="s4">
                                    <path id="s3" serif:id="s" d="M247,90L317.534,307.082L132.873,172.918L361.127,172.918L176.466,307.082L247,90Z" style="fill:white;fill-rule:nonzero;"/>
                                    <g id="use110403" serif:id="use11040" transform="matrix(1,0,0,1,0,420)">
                                        <path d="M247,90L317.534,307.082L132.873,172.918L361.127,172.918L176.466,307.082L247,90Z" style="fill:white;fill-rule:nonzero;"/>
                                    </g>
                                    <g id="use110423" serif:id="use11042" transform="matrix(1,0,0,1,0,840)">
                                        <path d="M247,90L317.534,307.082L132.873,172.918L361.127,172.918L176.466,307.082L247,90Z" style="fill:white;fill-rule:nonzero;"/>
                                    </g>
                                    <g id="use110443" serif:id="use11044" transform="matrix(1,0,0,1,0,1260)">
                                        <path d="M247,90L317.534,307.082L132.873,172.918L361.127,172.918L176.466,307.082L247,90Z" style="fill:white;fill-rule:nonzero;"/>
                                    </g>
                                </g>
                                <g id="use110461" serif:id="use11046" transform="matrix(1,0,0,1,0,1680)">
                                    <path d="M247,90L317.534,307.082L132.873,172.918L361.127,172.918L176.466,307.082L247,90Z" style="fill:white;fill-rule:nonzero;"/>
                                </g>
                            </g>
                            <g id="use110481" serif:id="use11048" transform="matrix(1,0,0,1,247,210)">
                                <path id="s6" serif:id="s" d="M247,90L317.534,307.082L132.873,172.918L361.127,172.918L176.466,307.082L247,90Z" style="fill:white;fill-rule:nonzero;"/>
                                <g id="use110404" serif:id="use11040" transform="matrix(1,0,0,1,0,420)">
                                    <path d="M247,90L317.534,307.082L132.873,172.918L361.127,172.918L176.466,307.082L247,90Z" style="fill:white;fill-rule:nonzero;"/>
                                </g>
                                <g id="use110424" serif:id="use11042" transform="matrix(1,0,0,1,0,840)">
                                    <path d="M247,90L317.534,307.082L132.873,172.918L361.127,172.918L176.466,307.082L247,90Z" style="fill:white;fill-rule:nonzero;"/>
                                </g>
                                <g id="use110444" serif:id="use11044" transform="matrix(1,0,0,1,0,1260)">
                                    <path d="M247,90L317.534,307.082L132.873,172.918L361.127,172.918L176.466,307.082L247,90Z" style="fill:white;fill-rule:nonzero;"/>
                                </g>
                            </g>
                        </g>
                        <g id="use11050" transform="matrix(1,0,0,1,494,0)">
                            <g id="s52" serif:id="s5">
                                <g id="s42" serif:id="s4">
                                    <path id="s7" serif:id="s" d="M247,90L317.534,307.082L132.873,172.918L361.127,172.918L176.466,307.082L247,90Z" style="fill:white;fill-rule:nonzero;"/>
                                    <g id="use110405" serif:id="use11040" transform="matrix(1,0,0,1,0,420)">
                                        <path d="M247,90L317.534,307.082L132.873,172.918L361.127,172.918L176.466,307.082L247,90Z" style="fill:white;fill-rule:nonzero;"/>
                                    </g>
                                    <g id="use110425" serif:id="use11042" transform="matrix(1,0,0,1,0,840)">
                                        <path d="M247,90L317.534,307.082L132.873,172.918L361.127,172.918L176.466,307.082L247,90Z" style="fill:white;fill-rule:nonzero;"/>
                                    </g>
                                    <g id="use110445" serif:id="use11044" transform="matrix(1,0,0,1,0,1260)">
                                        <path d="M247,90L317.534,307.082L132.873,172.918L361.127,172.918L176.466,307.082L247,90Z" style="fill:white;fill-rule:nonzero;"/>
                                    </g>
                                </g>
                                <g id="use110462" serif:id="use11046" transform="matrix(1,0,0,1,0,1680)">
                                    <path d="M247,90L317.534,307.082L132.873,172.918L361.127,172.918L176.466,307.082L247,90Z" style="fill:white;fill-rule:nonzero;"/>
                                </g>
                            </g>
                            <g id="use110482" serif:id="use11048" transform="matrix(1,0,0,1,247,210)">
                                <path id="s8" serif:id="s" d="M247,90L317.534,307.082L132.873,172.918L361.127,172.918L176.466,307.082L247,90Z" style="fill:white;fill-rule:nonzero;"/>
                                <g id="use110406" serif:id="use11040" transform="matrix(1,0,0,1,0,420)">
                                    <path d="M247,90L317.534,307.082L132.873,172.918L361.127,172.918L176.466,307.082L247,90Z" style="fill:white;fill-rule:nonzero;"/>
                                </g>
                                <g id="use110426" serif:id="use11042" transform="matrix(1,0,0,1,0,840)">
                                    <path d="M247,90L317.534,307.082L132.873,172.918L361.127,172.918L176.466,307.082L247,90Z" style="fill:white;fill-rule:nonzero;"/>
                                </g>
                                <g id="use110446" serif:id="use11044" transform="matrix(1,0,0,1,0,1260)">
                                    <path d="M247,90L317.534,307.082L132.873,172.918L361.127,172.918L176.466,307.082L247,90Z" style="fill:white;fill-rule:nonzero;"/>
                                </g>
                            </g>
                        </g>
                    </g>
                    <g id="use41837" transform="matrix(1,0,0,1,1976,0)">
                        <g id="s53" serif:id="s5">
                            <g id="s43" serif:id="s4">
                                <path id="s10" serif:id="s" d="M247,90L317.534,307.082L132.873,172.918L361.127,172.918L176.466,307.082L247,90Z" style="fill:white;fill-rule:nonzero;"/>
                                <g id="use110407" serif:id="use11040" transform="matrix(1,0,0,1,0,420)">
                                    <path d="M247,90L317.534,307.082L132.873,172.918L361.127,172.918L176.466,307.082L247,90Z" style="fill:white;fill-rule:nonzero;"/>
                                </g>
                                <g id="use110427" serif:id="use11042" transform="matrix(1,0,0,1,0,840)">
                                    <path d="M247,90L317.534,307.082L132.873,172.918L361.127,172.918L176.466,307.082L247,90Z" style="fill:white;fill-rule:nonzero;"/>
                                </g>
                                <g id="use110447" serif:id="use11044" transform="matrix(1,0,0,1,0,1260)">
                                    <path d="M247,90L317.534,307.082L132.873,172.918L361.127,172.918L176.466,307.082L247,90Z" style="fill:white;fill-rule:nonzero;"/>
                                </g>
                            </g>
                            <g id="use110463" serif:id="use11046" transform="matrix(1,0,0,1,0,1680)">
                                <path d="M247,90L317.534,307.082L132.873,172.918L361.127,172.918L176.466,307.082L247,90Z" style="fill:white;fill-rule:nonzero;"/>
                            </g>
                        </g>
                        <g id="use110483" serif:id="use11048" transform="matrix(1,0,0,1,247,210)">
                            <path id="s11" serif:id="s" d="M247,90L317.534,307.082L132.873,172.918L361.127,172.918L176.466,307.082L247,90Z" style="fill:white;fill-rule:nonzero;"/>
                            <g id="use110408" serif:id="use11040" transform="matrix(1,0,0,1,0,420)">
                                <path d="M247,90L317.534,307.082L132.873,172.918L361.127,172.918L176.466,307.082L247,90Z" style="fill:white;fill-rule:nonzero;"/>
                            </g>
                            <g id="use110428" serif:id="use11042" transform="matrix(1,0,0,1,0,840)">
                                <path d="M247,90L317.534,307.082L132.873,172.918L361.127,172.918L176.466,307.082L247,90Z" style="fill:white;fill-rule:nonzero;"/>
                            </g>
                            <g id="use110448" serif:id="use11044" transform="matrix(1,0,0,1,0,1260)">
                                <path d="M247,90L317.534,307.082L132.873,172.918L361.127,172.918L176.466,307.082L247,90Z" style="fill:white;fill-rule:nonzero;"/>
                            </g>
                        </g>
                    </g>
                    <g id="use41839" transform="matrix(1,0,0,1,2470,0)">
                        <g id="s44" serif:id="s4">
                            <path id="s12" serif:id="s" d="M247,90L317.534,307.082L132.873,172.918L361.127,172.918L176.466,307.082L247,90Z" style="fill:white;fill-rule:nonzero;"/>
                            <g id="use110409" serif:id="use11040" transform="matrix(1,0,0,1,0,420)">
                                <path d="M247,90L317.534,307.082L132.873,172.918L361.127,172.918L176.466,307.082L247,90Z" style="fill:white;fill-rule:nonzero;"/>
                            </g>
                            <g id="use110429" serif:id="use11042" transform="matrix(1,0,0,1,0,840)">
                                <path d="M247,90L317.534,307.082L132.873,172.918L361.127,172.918L176.466,307.082L247,90Z" style="fill:white;fill-rule:nonzero;"/>
                            </g>
                            <g id="use110449" serif:id="use11044" transform="matrix(1,0,0,1,0,1260)">
                                <path d="M247,90L317.534,307.082L132.873,172.918L361.127,172.918L176.466,307.082L247,90Z" style="fill:white;fill-rule:nonzero;"/>
                            </g>
                        </g>
                        <g id="use110464" serif:id="use11046" transform="matrix(1,0,0,1,0,1680)">
                            <path d="M247,90L317.534,307.082L132.873,172.918L361.127,172.918L176.466,307.082L247,90Z" style="fill:white;fill-rule:nonzero;"/>
                        </g>
                    </g>
                </g>
            </g>
            <g id="g41867" transform="matrix(0.838617,0,0,0.838617,-387.466,146.664)">
                <g id="g41849" transform="matrix(0.0330032,0,0,0.0293572,823.882,760.144)">
                    <path id="path41845" d="M-1300.46,480.362C-1289.35,473.675 -1278.17,467.155 -1266.45,461.978C-1399.08,383.53 -1406.51,324.558 -1433.75,262.504C-1412.77,334.367 -1395.25,406.118 -1300.46,480.362Z" style="fill:rgb(168,1,38);"/>
                    <path id="path41847" d="M-1369.55,362.607C-1319.02,410.112 -1275.16,443.957 -1242.8,454.256C-1210.82,435.07 -1104.98,424.642 -1107.28,451.707C-1130.44,438.872 -1144.21,444.959 -1157.33,449.705C-1150.72,449.602 -1133.29,447.43 -1128.05,449.502C-1130.18,452.4 -1132.5,453.642 -1134.89,455.27C-1126.32,457.373 -1118.24,460.113 -1111.5,464.655C-1107.14,464.187 -1104.29,464.308 -1102.95,465.829C-1107.41,467.147 -1112.77,473.568 -1115.4,477.923C-1085.99,478.865 -1054.67,478.535 -1051.38,513.404C-1042.11,482.523 -1058.69,466.468 -1091.03,459.454C-1095.27,448.879 -1102.1,439.856 -1108.73,429.633C-1197.12,424.08 -1285.4,417.336 -1369.55,362.607Z" style="fill:rgb(168,1,38);"/>
                </g>
                <path id="path41851" d="M776.394,777.844L776.394,776.078L777.576,776.078C777.529,776.139 777.489,776.202 777.389,776.242L776.649,776.242L776.649,776.707L777.31,776.707C777.272,776.763 777.231,776.815 777.16,776.838L776.649,776.838L776.649,777.468C776.595,777.611 776.524,777.744 776.394,777.844Z"/>
                <path id="path41853" d="M779.583,776.26L779.583,777.552L779.919,777.552L779.919,776.336C779.465,775.922 779.01,775.923 778.556,776.336L778.556,777.552L778.859,777.552L778.859,776.838L779.099,776.838C779.155,776.81 779.193,776.775 779.216,776.735L778.865,776.735L778.865,776.265C779.134,776.08 779.349,776.08 779.583,776.26Z"/>
                <path id="path41855" d="M783.087,777.595L781.724,777.595L781.724,776.106L782.065,776.106L782.065,777.473L783.263,777.473C783.213,777.518 783.188,777.579 783.087,777.595Z"/>
                <path id="path41857" d="M785.123,776.078L785.123,776.37C784.576,777.112 785.508,778.003 786.558,777.35L786.637,777.334C785.986,778.068 783.603,777.472 785.123,776.078L785.123,776.078Z"/>
                <path id="path41859" d="M784.403,776.116L784.403,776.655C784.926,775.712 785.651,775.243 787.873,775.869C785.742,775.032 784.951,775.471 784.403,776.116Z"/>
                <g id="path41861" transform="matrix(1,0,0,1,60.7932,628.221)">
                    <path d="M727.748,147.74C727.303,147.747 726.857,148.044 726.859,148.607C726.864,149.734 728.636,149.791 728.637,148.607C728.637,148.016 728.193,147.733 727.748,147.74ZM727.744,147.857C728.008,147.854 728.273,148.102 728.275,148.607C728.28,149.618 727.229,149.595 727.223,148.607C727.219,148.114 727.48,147.86 727.744,147.857Z"/>
                </g>
                <path id="path41863" d="M791.088,776.264L791.088,777.606L790.823,777.606L790.823,776.198L791.089,776.069L791.087,776.13C791.497,776.121 791.783,776.308 791.857,776.411L791.857,777.619L791.599,777.619L791.599,776.433C791.504,776.275 791.398,776.235 791.087,776.232L791.088,776.264Z"/>
                <g id="path41865" transform="matrix(1,0,0,1,60.7932,628.221)">
                    <path d="M723.354,150.422C720.614,150.434 721.323,152.631 722.838,152.588C723.544,152.568 723.678,152.494 724.15,151.988C723.855,153.469 722.849,153.47 721.639,153.588C721.487,153.688 721.456,153.709 721.352,153.869C723.407,153.828 725.131,153.462 725.08,151.867C725.045,150.751 724.298,150.418 723.354,150.422ZM723.313,150.688C723.313,150.687 723.313,150.687 723.313,150.687C723.809,150.687 724.217,151.008 724.217,151.398C724.217,151.398 724.217,151.398 724.217,151.398C724.216,151.788 723.808,152.108 723.313,152.107C722.818,152.107 722.411,151.787 722.41,151.398C722.41,151.009 722.817,150.688 723.313,150.688Z"/>
                </g>
            </g>
        </g>
        <path id="path41871" d="M746.036,795.501L747.318,797.861L747.318,819.162L746.787,822.61L746.787,999.014L745.817,1002.7L745.817,969.202L745.317,967.577L745.317,964.702L745.788,962.944L745.788,947.014L745.236,944.957L745.236,940.827L745.692,938.702L745.692,828.639L745.254,826.202L745.254,795.501L746.036,795.501Z" style="fill:rgb(16,16,16);stroke:black;stroke-width:0.4px;"/>
        <path id="path41873" d="M727.4,1003.94L746.046,1003.94" style="fill:none;fill-rule:nonzero;stroke:black;stroke-width:0.4px;stroke-linecap:butt;stroke-linejoin:miter;"/>
        <path id="path41875" d="M727.4,989.937L746.046,989.937" style="fill:none;fill-rule:nonzero;stroke:black;stroke-width:0.4px;stroke-linecap:butt;stroke-linejoin:miter;"/>
        <g id="g41955" transform="matrix(1,0,0,1,234.758,-18)">
            <g id="g41945" transform="matrix(1,0,0,1,265.146,-98.5871)">
                <g id="g41937">
                    <g id="path41933" transform="matrix(1,0,0,1,0,652.362)">
                        <path d="M224.046,168.798C223.981,167.802 223.958,158.952 223.996,149.132C224.069,129.728 224.058,129.973 225.12,125.01C226.332,119.347 228.645,114.896 232.555,110.702C234.103,109.042 235.342,108.214 236.283,108.21L236.681,108.208L236.681,170.61L224.164,170.61L224.046,168.798L224.046,168.798Z" style="fill:url(#_Linear5);fill-rule:nonzero;"/>
                    </g>
                    <g id="path41935" transform="matrix(1,0,0,1,0,652.362)">
                        <path d="M227.537,177.107C227.442,176.985 226.785,175.812 226.076,174.499C225.368,173.187 224.633,171.854 224.444,171.538L224.101,170.964L236.681,170.964L236.681,177.328L232.195,177.328C228.815,177.328 227.666,177.273 227.537,177.107Z" style="fill:url(#_Linear6);fill-rule:nonzero;"/>
                    </g>
                </g>
                <g id="g41943" transform="matrix(-1,0,0,1,473.688,0)">
                    <g id="path41939" transform="matrix(1,0,0,1,0,652.362)">
                        <path d="M224.046,168.798C223.981,167.802 223.958,158.952 223.996,149.132C224.069,129.728 224.058,129.973 225.12,125.01C226.332,119.347 228.645,114.896 232.555,110.702C234.103,109.042 235.342,108.214 236.283,108.21L236.681,108.208L236.681,170.61L224.164,170.61L224.046,168.798L224.046,168.798Z" style="fill:url(#_Linear7);fill-rule:nonzero;"/>
                    </g>
                    <g id="path41941" transform="matrix(1,0,0,1,0,652.362)">
                        <path d="M227.537,177.107C227.442,176.985 226.785,175.812 226.076,174.499C225.368,173.187 224.633,171.854 224.444,171.538L224.101,170.964L236.681,170.964L236.681,177.328L232.195,177.328C228.815,177.328 227.666,177.273 227.537,177.107Z" style="fill:url(#_Linear8);fill-rule:nonzero;"/>
                    </g>
                </g>
            </g>
            <path id="path41947" d="M492.642,731.219L511.288,731.219" style="fill:none;fill-rule:nonzero;stroke:black;stroke-width:0.4px;stroke-linecap:butt;stroke-linejoin:miter;"/>
            <path id="path41949" d="M489.002,724.543L514.928,724.543" style="fill:none;fill-rule:nonzero;stroke:black;stroke-width:0.4px;stroke-linecap:butt;stroke-linejoin:miter;"/>
            <path id="path41951" d="M492.642,731.219L492.253,730.505L491.863,729.791L490.696,727.65L490.307,726.936L489.918,726.222L489.139,724.794L489.002,721.93L489.002,689.687L489.017,686.695L489.067,686.166L489.117,685.636L489.169,685.106L489.223,684.576L489.279,684.046L489.339,683.517L489.402,682.986L489.469,682.456L489.541,681.926L489.619,681.396L489.703,680.865L489.792,680.335L489.888,679.806L489.99,679.278L490.098,678.751L490.214,678.226L490.337,677.703L490.467,677.182L490.605,676.664L490.75,676.149L490.903,675.637L491.065,675.128L491.235,674.624L491.414,674.123L491.601,673.627L491.798,673.136L492.004,672.65L492.22,672.169L492.445,671.693L492.68,671.223L492.923,670.758L493.177,670.297L493.439,669.84L493.71,669.388L493.991,668.94L494.28,668.496L494.578,668.056L494.885,667.619L495.201,667.185L495.525,666.755L495.858,666.327L496.199,665.902L496.549,665.479L496.906,665.059L497.272,664.641L497.646,664.224L498.03,663.815L498.425,663.422L498.834,663.052L499.259,662.716L499.702,662.421L500.166,662.178L500.652,661.993L501.164,661.875L501.705,661.81L502.27,661.809L502.811,661.874L503.323,661.992L503.81,662.176L504.274,662.419L504.717,662.713L505.143,663.049L505.552,663.418L505.947,663.811L506.33,664.22L506.704,664.637L507.07,665.055L507.427,665.475L507.777,665.898L508.118,666.323L508.45,666.751L508.774,667.181L509.09,667.615L509.397,668.052L509.695,668.492L509.984,668.936L510.264,669.384L510.536,669.836L510.799,670.293L511.052,670.753L511.296,671.219L511.532,671.689L511.757,672.164L511.974,672.645L512.181,673.131L512.379,673.622L512.568,674.118L512.748,674.618L512.919,675.123L513.082,675.631L513.236,676.143L513.383,676.658L513.521,677.176L513.652,677.697L513.775,678.22L513.89,678.745L513.998,679.272L514.1,679.8L514.194,680.33L514.281,680.86L514.363,681.39L514.437,681.921L514.506,682.452L514.569,682.982L514.628,683.513L514.682,684.043L514.733,684.574L514.781,685.104L514.827,685.634L514.871,686.165L514.915,686.695L514.928,689.687L514.928,721.93L514.791,724.794L514.402,725.508L514.013,726.222L513.623,726.936L512.456,729.077L512.067,729.791L511.677,730.505L511.288,731.219" style="fill:none;fill-rule:nonzero;stroke:black;stroke-width:0.4px;stroke-linecap:butt;stroke-linejoin:miter;"/>
            <path id="path41953" d="M501.965,731.219L501.965,661.81" style="fill:none;fill-rule:nonzero;stroke:black;stroke-width:0.4px;stroke-linecap:butt;stroke-linejoin:miter;"/>
        </g>
    </g>
    <defs>
        <linearGradient id="_Linear1" x1="0" y1="0" x2="1" y2="0" gradientUnits="userSpaceOnUse" gradientTransform="matrix(18.6674,0,0,18.6674,727.379,857.918)"><stop offset="0" style="stop-color:rgb(246,246,246);stop-opacity:1"/><stop offset="0.5" style="stop-color:white;stop-opacity:1"/><stop offset="1" style="stop-color:rgb(246,246,246);stop-opacity:1"/></linearGradient>
        <linearGradient id="_Linear2" x1="0" y1="0" x2="1" y2="0" gradientUnits="userSpaceOnUse" gradientTransform="matrix(18.667,0,0,18.667,727.379,777.414)"><stop offset="0" style="stop-color:rgb(16,16,16);stop-opacity:1"/><stop offset="0.5" style="stop-color:rgb(40,40,40);stop-opacity:1"/><stop offset="1" style="stop-color:rgb(16,16,16);stop-opacity:1"/></linearGradient>
        <linearGradient id="_Linear3" x1="0" y1="0" x2="1" y2="0" gradientUnits="userSpaceOnUse" gradientTransform="matrix(18.6674,0,0,18.6674,727.379,996.927)"><stop offset="0" style="stop-color:rgb(16,16,16);stop-opacity:1"/><stop offset="0.5" style="stop-color:rgb(40,40,40);stop-opacity:1"/><stop offset="1" style="stop-color:rgb(16,16,16);stop-opacity:1"/></linearGradient>
        <linearGradient id="_Linear4" x1="0" y1="0" x2="1" y2="0" gradientUnits="userSpaceOnUse" gradientTransform="matrix(18.577,0,0,18.577,727.411,1006.41)"><stop offset="0" style="stop-color:rgb(16,16,16);stop-opacity:1"/><stop offset="0.5" style="stop-color:rgb(40,40,40);stop-opacity:1"/><stop offset="1" style="stop-color:rgb(16,16,16);stop-opacity:1"/></linearGradient>
        <linearGradient id="_Linear5" x1="0" y1="0" x2="1" y2="0" gradientUnits="userSpaceOnUse" gradientTransform="matrix(14.1153,0,0,14.1153,220.51,800.787)"><stop offset="0" style="stop-color:rgb(230,230,230);stop-opacity:1"/><stop offset="1" style="stop-color:rgb(249,249,249);stop-opacity:1"/></linearGradient>
        <linearGradient id="_Linear6" x1="0" y1="0" x2="1" y2="0" gradientUnits="userSpaceOnUse" gradientTransform="matrix(14.1153,0,0,14.1153,220.51,800.787)"><stop offset="0" style="stop-color:rgb(230,230,230);stop-opacity:1"/><stop offset="1" style="stop-color:rgb(249,249,249);stop-opacity:1"/></linearGradient>
        <linearGradient id="_Linear7" x1="0" y1="0" x2="1" y2="0" gradientUnits="userSpaceOnUse" gradientTransform="matrix(17.48,0,0,17.48,219.645,801.162)"><stop offset="0" style="stop-color:rgb(230,230,230);stop-opacity:1"/><stop offset="1" style="stop-color:rgb(249,249,249);stop-opacity:1"/></linearGradient>
        <linearGradient id="_Linear8" x1="0" y1="0" x2="1" y2="0" gradientUnits="userSpaceOnUse" gradientTransform="matrix(17.48,0,0,17.48,219.645,801.162)"><stop offset="0" style="stop-color:rgb(230,230,230);stop-opacity:1"/><stop offset="1" style="stop-color:rgb(249,249,249);stop-opacity:1"/></linearGradient>
    </defs>
</svg>
