<?xml version="1.0" encoding="UTF-8" standalone="no"?>
<!DOCTYPE svg PUBLIC "-//W3C//DTD SVG 1.1//EN" "http://www.w3.org/Graphics/SVG/1.1/DTD/svg11.dtd">
<svg width="100%" height="100%" viewBox="0 0 143 901" version="1.1" xmlns="http://www.w3.org/2000/svg" xmlns:xlink="http://www.w3.org/1999/xlink" xml:space="preserve" xmlns:serif="http://www.serif.com/" style="fill-rule:evenodd;clip-rule:evenodd;stroke-linejoin:round;stroke-miterlimit:2;">
    <g id="Starship" transform="matrix(1.83222,0,0,1.83222,-197.145,-149.859)">
        <path d="M122.679,232.098L122.679,290.802C122.679,290.802 112.223,289.159 108.724,288.608C108.076,288.507 107.599,287.948 107.599,287.293L107.599,269.351C107.599,268.908 107.686,268.469 107.855,268.059C109.838,263.25 122.679,232.098 122.679,232.098Z" style="fill:rgb(166,166,166);"/>
        <path d="M127.248,213.483L122.679,232.098L122.679,290.802L127.248,290.802L127.248,213.483" style="fill:rgb(179,179,179);"/>
        <g transform="matrix(-1,0,0,1,293.115,0)">
            <path d="M122.679,232.098L122.679,290.802C122.679,290.802 112.223,289.159 108.724,288.608C108.076,288.507 107.599,287.948 107.599,287.293L107.599,269.351C107.599,268.908 107.686,268.469 107.855,268.059C109.838,263.25 122.679,232.098 122.679,232.098Z" style="fill:rgb(166,166,166);"/>
        </g>
        <g transform="matrix(-1,0,0,1,293.115,0)">
            <path d="M127.248,213.483L122.679,232.098L122.679,290.802L127.248,290.802L127.248,213.483" style="fill:rgb(179,179,179);"/>
        </g>
        <g id="Canard-Fins" serif:id="Canard Fins">
            <path d="M127.249,139.526C127.249,139.526 116.033,137.232 113.691,136.754C113.444,136.703 113.266,136.485 113.266,136.233L113.266,127.719C113.266,127.268 113.403,126.827 113.659,126.456C116.991,121.607 140.47,87.453 142.144,85.301" style="fill:rgb(153,153,153);"/>
            <g transform="matrix(-1,0,0,1,293.105,0)">
                <path d="M127.249,139.526C127.249,139.526 116.033,137.232 113.691,136.754C113.444,136.703 113.266,136.485 113.266,136.233L113.266,127.719C113.266,127.268 113.403,126.827 113.659,126.456C116.991,121.607 140.47,87.453 142.144,85.301" style="fill:rgb(153,153,153);"/>
            </g>
        </g>
        <path d="M127.248,290.802L127.249,139.526C127.368,108.406 141.266,81.791 146.557,81.791L146.588,81.792C151.904,81.898 165.747,108.469 165.866,139.526L165.867,290.802L127.248,290.802Z" style="fill:rgb(191,191,191);"/>
        <g transform="matrix(1,0,0,1,-353.443,-247.858)">
            <path d="M488.36,357.71C487.972,357.71 487.608,357.522 487.384,357.206C487.16,356.889 487.103,356.484 487.232,356.118C492.78,340.357 497.002,332.77 500,332.732L500.035,332.733C503.031,332.829 507.242,340.418 512.768,356.118C512.897,356.484 512.84,356.889 512.616,357.206C512.392,357.522 512.028,357.71 511.64,357.71L488.36,357.71Z" style="fill:rgb(38,38,38);"/>
        </g>
        <g transform="matrix(1,0,0,1,-353.433,-247.817)">
            <path d="M514.821,361.881C514.821,361.394 514.426,360.999 513.939,360.999L486.042,360.999C485.555,360.999 485.16,361.394 485.16,361.881C485.16,362.367 485.555,362.762 486.042,362.762L513.939,362.762C514.426,362.762 514.821,362.367 514.821,361.881Z" style="fill:rgb(38,38,38);"/>
        </g>
        <g transform="matrix(1.08987,0,0,1,-398.365,-242.937)">
            <path d="M514.821,361.881C514.821,361.394 514.458,360.999 514.012,360.999L485.969,360.999C485.522,360.999 485.16,361.394 485.16,361.881C485.16,362.367 485.522,362.762 485.969,362.762L514.012,362.762C514.458,362.762 514.821,362.367 514.821,361.881Z" style="fill:rgb(38,38,38);"/>
        </g>
        <g transform="matrix(1.13492,0,0,1,-420.894,-238.058)">
            <path d="M514.821,361.881C514.821,361.394 514.473,360.999 514.044,360.999L485.937,360.999C485.508,360.999 485.16,361.394 485.16,361.881C485.16,362.367 485.508,362.762 485.937,362.762L514.044,362.762C514.473,362.762 514.821,362.367 514.821,361.881Z" style="fill:rgb(38,38,38);"/>
        </g>
        <g transform="matrix(1.18062,0,0,1,-443.743,-233.179)">
            <path d="M514.821,361.881C514.821,361.394 514.486,360.999 514.074,360.999L485.907,360.999C485.495,360.999 485.16,361.394 485.16,361.881C485.16,362.367 485.495,362.762 485.907,362.762L514.074,362.762C514.486,362.762 514.821,362.367 514.821,361.881Z" style="fill:rgb(38,38,38);"/>
        </g>
        <g transform="matrix(1.21647,0,0,1,-461.668,-228.3)">
            <path d="M514.821,361.881C514.821,361.394 514.496,360.999 514.096,360.999L485.885,360.999C485.485,360.999 485.16,361.394 485.16,361.881C485.16,362.367 485.485,362.762 485.885,362.762L514.096,362.762C514.496,362.762 514.821,362.367 514.821,361.881Z" style="fill:rgb(38,38,38);"/>
        </g>
        <g transform="matrix(1.21647,0,0,1,-461.668,-223.421)">
            <path d="M514.821,361.881C514.821,361.394 514.496,360.999 514.096,360.999L485.885,360.999C485.485,360.999 485.16,361.394 485.16,361.881C485.16,362.367 485.485,362.762 485.885,362.762L514.096,362.762C514.496,362.762 514.821,362.367 514.821,361.881Z" style="fill:rgb(38,38,38);"/>
        </g>
        <g transform="matrix(1.01754,0,0,1,-361.71,-247.858)">
            <path d="M490.954,523.154C490.954,523.154 490.474,523.776 489.962,524.439C489.178,525.455 488.752,526.71 488.752,528.003L488.752,538.66L490.954,538.66L490.954,523.154Z" style="fill:rgb(102,102,102);"/>
        </g>
        <g transform="matrix(-1.01754,0,0,1,654.825,-247.858)">
            <path d="M490.954,523.154C490.954,523.154 490.474,523.776 489.962,524.439C489.178,525.455 488.752,526.71 488.752,528.003L488.752,538.66L490.954,538.66L490.954,523.154Z" style="fill:rgb(102,102,102);"/>
        </g>
    </g>
    <g id="Super-Heavy" serif:id="Super Heavy" transform="matrix(1.83222,0,0,1.83222,-753.117,-149.859)">
        <g transform="matrix(1,0,0,1,303.443,0)">
            <path d="M127.248,533.187C125.185,535.25 123.713,537.828 122.986,540.654C120.803,549.128 116.069,567.511 114.913,571.998C114.851,572.238 114.904,572.493 115.056,572.689C115.208,572.885 115.442,573 115.69,573L115.691,573C116.387,573 117.077,572.868 117.724,572.611C120.332,571.575 127.248,568.829 127.248,568.829L127.248,533.187Z" style="fill:rgb(166,166,166);"/>
        </g>
        <g transform="matrix(-1,0,0,1,596.557,0)">
            <path d="M127.248,533.187C125.185,535.25 123.713,537.828 122.986,540.654C120.803,549.128 116.069,567.511 114.913,571.998C114.851,572.238 114.904,572.493 115.056,572.689C115.208,572.885 115.442,573 115.69,573L115.691,573C116.387,573 117.077,572.868 117.724,572.611C120.332,571.575 127.248,568.829 127.248,568.829L127.248,533.187Z" style="fill:rgb(166,166,166);"/>
        </g>
        <g id="Engines">
            <g transform="matrix(1.31385,0,0,1.31385,-195.185,-504.398)">
                <path d="M482.975,818.929C483.025,817.972 483.193,817.015 483.979,816.054L485.17,816.054C485.956,817.015 486.123,817.972 486.173,818.929L482.975,818.929Z" style="fill:rgb(64,64,64);"/>
            </g>
            <g transform="matrix(1.31385,0,0,1.31385,-200.233,-505.354)">
                <path d="M482.975,818.929C483.025,817.972 483.193,817.015 483.979,816.054L485.17,816.054C485.956,817.015 486.123,817.972 486.173,818.929L482.975,818.929Z" style="fill:rgb(64,64,64);"/>
            </g>
            <g transform="matrix(1.31385,0,0,1.31385,-189.825,-504.048)">
                <path d="M482.975,818.929C483.025,817.972 483.193,817.015 483.979,816.054L485.17,816.054C485.956,817.015 486.123,817.972 486.173,818.929L482.975,818.929Z" style="fill:rgb(64,64,64);"/>
            </g>
            <g transform="matrix(1.31385,0,0,1.31385,-197.79,-504.048)">
                <path d="M482.975,818.929C483.025,817.972 483.193,817.015 483.979,816.054L485.17,816.054C485.956,817.015 486.123,817.972 486.173,818.929L482.975,818.929Z" style="fill:rgb(102,102,102);"/>
            </g>
            <g transform="matrix(1.31385,0,0,1.31385,-202.838,-505.004)">
                <path d="M482.975,818.929C483.025,817.972 483.193,817.015 483.979,816.054L485.17,816.054C485.956,817.015 486.123,817.972 486.173,818.929L482.975,818.929Z" style="fill:rgb(102,102,102);"/>
            </g>
            <g transform="matrix(1.31385,0,0,1.31385,-192.43,-503.698)">
                <path d="M482.975,818.929C483.025,817.972 483.193,817.015 483.979,816.054L485.17,816.054C485.956,817.015 486.123,817.972 486.173,818.929L482.975,818.929Z" style="fill:rgb(102,102,102);"/>
            </g>
            <g transform="matrix(-1.31385,0,0,1.31385,1095.19,-504.398)">
                <path d="M482.975,818.929C483.025,817.972 483.193,817.015 483.979,816.054L485.17,816.054C485.956,817.015 486.123,817.972 486.173,818.929L482.975,818.929Z" style="fill:rgb(64,64,64);"/>
            </g>
            <g transform="matrix(-1.31385,0,0,1.31385,1100.23,-505.354)">
                <path d="M482.975,818.929C483.025,817.972 483.193,817.015 483.979,816.054L485.17,816.054C485.956,817.015 486.123,817.972 486.173,818.929L482.975,818.929Z" style="fill:rgb(64,64,64);"/>
            </g>
            <g transform="matrix(-1.31385,0,0,1.31385,1089.82,-504.048)">
                <path d="M482.975,818.929C483.025,817.972 483.193,817.015 483.979,816.054L485.17,816.054C485.956,817.015 486.123,817.972 486.173,818.929L482.975,818.929Z" style="fill:rgb(64,64,64);"/>
            </g>
            <g transform="matrix(-1.31385,0,0,1.31385,1097.79,-504.048)">
                <path d="M482.975,818.929C483.025,817.972 483.193,817.015 483.979,816.054L485.17,816.054C485.956,817.015 486.123,817.972 486.173,818.929L482.975,818.929Z" style="fill:rgb(102,102,102);"/>
            </g>
            <g transform="matrix(-1.31385,0,0,1.31385,1102.84,-505.004)">
                <path d="M482.975,818.929C483.025,817.972 483.193,817.015 483.979,816.054L485.17,816.054C485.956,817.015 486.123,817.972 486.173,818.929L482.975,818.929Z" style="fill:rgb(102,102,102);"/>
            </g>
            <g transform="matrix(-1.31385,0,0,1.31385,1092.43,-503.698)">
                <path d="M482.975,818.929C483.025,817.972 483.193,817.015 483.979,816.054L485.17,816.054C485.956,817.015 486.123,817.972 486.173,818.929L482.975,818.929Z" style="fill:rgb(102,102,102);"/>
            </g>
        </g>
        <g transform="matrix(2,0,0,19.8464,176.194,-5588.11)">
            <rect x="127.248" y="296.221" width="19.309" height="14.009" style="fill:rgb(191,191,191);"/>
        </g>
        <g transform="matrix(1,0,0,1,-50,-247.858)">
            <path d="M498.328,820.858C497.871,820.858 497.435,820.669 497.121,820.337C496.807,820.005 496.644,819.558 496.67,819.102C497.084,811.798 498.652,784.196 498.652,784.196L500,781.045L501.348,784.196C501.348,784.196 502.916,811.798 503.33,819.102C503.356,819.558 503.193,820.005 502.879,820.337C502.565,820.669 502.129,820.858 501.672,820.858L498.328,820.858Z" style="fill:rgb(179,179,179);"/>
        </g>
    </g>
    <g id="reflection" transform="matrix(1.83222,0,0,1.83222,-844.728,-603.988)">
        <g transform="matrix(1.04039,0,0,0.986683,-20.0564,3.78843)">
            <path d="M496.553,340.364C488.418,355.605 485.992,372.207 485.791,389.341L485.791,823.869L496.553,823.869L496.553,340.364Z" style="fill:white;fill-opacity:0.5;"/>
        </g>
        <g transform="matrix(1.0066,0,0,4.94284,-3.38565,-2140.8)">
            <path d="M512.97,511.757C513.289,508.723 510.466,504.659 502.47,500.72C507.208,504.466 508.968,508.696 508.718,511.757L508.718,598.339L512.97,598.339L512.97,511.757Z" style="fill:white;fill-opacity:0.5;"/>
        </g>
    </g>
    <g id="Grid-Fin" serif:id="Grid Fin" transform="matrix(1.83222,0,0,1.83222,-753.129,-149.847)">
        <g transform="matrix(0.937772,0,0,1,-19.2951,-247.858)">
            <path d="M489.874,567.372L487.248,582.823L481.996,582.823L479.37,567.372L481.996,557.78L487.248,557.78L489.874,567.372Z" style="fill:rgb(166,166,166);"/>
        </g>
        <g transform="matrix(0.937772,0,0,1,-20.1698,-247.858)">
            <path d="M489.874,567.372L487.248,582.823L481.996,582.823L479.37,567.372L481.996,557.78L487.248,557.78L489.874,567.372Z" style="fill:rgb(140,140,140);"/>
        </g>
        <g transform="matrix(1,0,0,1.2406,-49.8588,-382.497)">
            <rect x="482.841" y="556.77" width="3.473" height="1.808" style="fill:rgb(166,166,166);"/>
        </g>
    </g>
    <g id="Grid-Fin1" serif:id="Grid Fin" transform="matrix(-1.83222,0,0,1.83222,895.89,-149.847)">
        <g transform="matrix(0.937772,0,0,1,-19.2951,-247.858)">
            <path d="M489.874,567.372L487.248,582.823L481.996,582.823L479.37,567.372L481.996,557.78L487.248,557.78L489.874,567.372Z" style="fill:rgb(166,166,166);"/>
        </g>
        <g transform="matrix(0.937772,0,0,1,-20.1698,-247.858)">
            <path d="M489.874,567.372L487.248,582.823L481.996,582.823L479.37,567.372L481.996,557.78L487.248,557.78L489.874,567.372Z" style="fill:rgb(140,140,140);"/>
        </g>
        <g transform="matrix(1,0,0,1.2406,-49.8588,-382.497)">
            <rect x="482.841" y="556.77" width="3.473" height="1.808" style="fill:rgb(166,166,166);"/>
        </g>
    </g>
</svg>
