<?xml version="1.0" encoding="UTF-8" standalone="no"?>
<!DOCTYPE svg PUBLIC "-//W3C//DTD SVG 1.1//EN" "http://www.w3.org/Graphics/SVG/1.1/DTD/svg11.dtd">
<svg width="100%" height="100%" viewBox="0 0 40 40" version="1.1" xmlns="http://www.w3.org/2000/svg" xmlns:xlink="http://www.w3.org/1999/xlink" xml:space="preserve" xmlns:serif="http://www.serif.com/" style="fill-rule:evenodd;clip-rule:evenodd;stroke-miterlimit:10;">
    <g transform="matrix(0.807181,0,0,0.807181,3.3433,3.65924)">
        <path d="M13.4,15.2L7,15.3C6.8,15.3 6.7,15.1 6.7,14.9L7.3,12.4C7.3,12.2 7,12 6.8,12.2C5.7,13.2 3.5,15.3 1.2,18.8C1.1,19 1.2,19.2 1.3,19.3L9.2,21.7" style="fill:none;fill-rule:nonzero;stroke:rgb(29,29,27);stroke-width:2px;"/>
        <path d="M38.4,1.8C38.4,1.7 38.3,1.7 38.2,1.6C37,1.1 24.7,-2.9 8.6,22.7C8.4,22.9 8.5,23.3 8.7,23.5L16.7,31.5C16.9,31.7 17.2,31.7 17.5,31.6C43,15.3 38.9,3 38.4,1.8Z" style="fill:none;fill-rule:nonzero;stroke:rgb(29,29,27);stroke-width:2px;"/>
        <path d="M24.8,26.6L24.7,33C24.7,33.2 24.9,33.3 25.1,33.3L27.6,32.7C27.9,32.6 28.1,33 27.9,33.2C26.9,34.3 24.8,36.5 21.3,38.8C21.1,38.9 20.9,38.8 20.8,38.7L18.4,30.8" style="fill:none;fill-rule:nonzero;stroke:rgb(29,29,27);stroke-width:2px;"/>
        <path d="M12.6,27.4L9.1,23.9L8.1,26.3C8,26.6 8,26.9 8.3,27.1L12.9,31.7C13.1,31.9 13.4,32 13.7,31.8L16.1,30.8L12.6,27.4Z" style="fill:none;fill-rule:nonzero;stroke:rgb(29,29,27);stroke-width:2px;"/>
        <circle cx="29" cy="11" r="2.6" style="fill:none;stroke:rgb(29,29,27);stroke-width:2px;"/>
        <circle cx="22.7" cy="17.3" r="2.6" style="fill:none;stroke:rgb(29,29,27);stroke-width:2px;"/>
        <path d="M12.4,31.3C12.4,31.3 10.4,36.6 4.2,35.8C3.4,29.6 8.7,27.6 8.7,27.6" style="fill:none;fill-rule:nonzero;stroke:rgb(29,29,27);stroke-width:2px;"/>
    </g>
</svg>
