<?xml version="1.0" encoding="UTF-8" standalone="no"?>
<!DOCTYPE svg PUBLIC "-//W3C//DTD SVG 1.1//EN" "http://www.w3.org/Graphics/SVG/1.1/DTD/svg11.dtd">
<svg width="100%" height="100%" viewBox="0 0 40 40" version="1.1" xmlns="http://www.w3.org/2000/svg" xmlns:xlink="http://www.w3.org/1999/xlink" xml:space="preserve" xmlns:serif="http://www.serif.com/" style="fill-rule:evenodd;clip-rule:evenodd;stroke-linejoin:round;stroke-miterlimit:2;">
    <g transform="matrix(0.753923,0,0,0.753923,4.69569,4.874)">
        <path d="M33.8,24C33.1,23.9 32.3,23.9 31.5,24.2C31.3,23.2 30.8,22.4 30.4,21.9C30.3,21.7 30.2,21.5 30.2,21.2L30.2,15C30.8,14.9 31.3,14.4 31.3,13.7L31.3,12.2L32.2,12.2C33,12.2 33.6,11.6 33.6,10.8L33.6,5.4C33.6,4.9 33.4,4.5 33,4.2L28.9,1.4L28.9,0L26.9,0L26.9,1L23.6,1C23.1,1 22.6,1.5 22.6,2C22.6,2.5 23.1,3 23.6,3L27.6,3L31.6,5.8L31.6,10.3L8.3,10.3L8.3,5.7L12.3,2.9L20,2.9C20.5,2.9 21,2.4 21,1.9C21,1.4 20.5,0.9 20,0.9L13,0.9L13,0L11,0L11,1.5L7,4.3C6.6,4.5 6.3,5 6.3,5.4L6.3,10.7C6.3,11.5 6.9,12.1 7.7,12.1L8.6,12.1L8.6,13.6C8.6,14.3 9.1,14.8 9.7,14.9L9.7,20.7C9.7,21.1 9.6,21.5 9.4,21.8C8.9,22.5 8.6,23.2 8.4,23.9C7.6,23.6 6.8,23.6 6.1,23.7C4.5,21 1.1,20.7 -0,20.7L0,22.7C0.6,22.7 3,22.8 4.2,24.4C4.1,24.4 4,24.5 3.9,24.5C3.4,24.8 3.3,25.6 3.8,26C4.1,26.3 4.6,26.4 5,26.2C5.7,25.7 7,25.2 8.4,26.1C8.4,26.3 8.5,26.4 8.5,26.6C8.7,27.2 9.4,27.5 10,27.1C10.4,26.8 10.5,26.4 10.4,25.9C10,24.7 10.5,23.6 11,22.8C11.5,22.2 11.7,21.4 11.7,20.6L11.7,15L14.5,15C15.2,15 15.8,14.4 15.8,13.7L15.8,12.2L16.2,12.2L16.2,13.7C16.2,14.4 16.8,15 17.5,15L22.1,15C22.8,15 23.4,14.4 23.4,13.7L23.4,12.2L24,12.2L24,13.7C24,14.4 24.6,15 25.3,15L28.1,15L28.1,21.3C28.1,22 28.3,22.6 28.7,23.2C29.3,24 29.8,25.1 29.4,26.3C29.2,26.8 29.4,27.2 29.8,27.5C30.3,27.9 31.1,27.6 31.3,27C31.3,26.8 31.4,26.7 31.4,26.5C32.8,25.6 34.1,26.1 34.8,26.6C35.2,26.9 35.7,26.8 36,26.4C36.4,25.9 36.4,25.2 35.9,24.9C35.8,24.8 35.7,24.8 35.7,24.8C36.8,23.5 38.8,23.3 39.7,23.3L40,23.3L40,21.3C38.9,21.2 35.4,21.3 33.8,24ZM13.9,13L10.7,13L10.7,12.2L13.9,12.2L13.9,13ZM21.6,13L18.4,13L18.4,12.2L21.6,12.2L21.6,13ZM29.2,13L26,13L26,12.2L29.2,12.2L29.2,13Z" style="fill-rule:nonzero;"/>
        <path d="M17.6,17.1C17,17.1 16.6,17.5 16.6,18.1L16.6,26C16.6,27.1 16.4,29.9 15.2,31.6C14.9,32 14.9,32.5 15.2,32.9C15.6,33.4 16.4,33.4 16.7,32.9C18.6,30.3 18.6,26.3 18.6,26.1L18.6,18.2C18.6,17.6 18.2,17.1 17.6,17.1Z" style="fill-rule:nonzero;"/>
        <path d="M22.7,23.2C23.3,23.2 23.7,22.8 23.7,22.2L23.7,18.1C23.7,17.5 23.3,17.1 22.7,17.1C22.2,17.1 21.7,17.5 21.7,18.1L21.7,22.2C21.7,22.7 22.1,23.2 22.7,23.2Z" style="fill-rule:nonzero;"/>
        <path d="M21.7,26.7C21.7,28.1 21.9,29.4 22.3,30.5C22.7,31.5 23.1,32.4 23.7,33.1C24.1,33.6 24.9,33.5 25.2,33C25.5,32.6 25.5,32.1 25.2,31.7C24.8,31.2 24.5,30.6 24.2,29.8C23.9,28.8 23.7,27.8 23.7,26.6L23.7,25.7C23.7,25.1 23.3,24.7 22.7,24.7C22.1,24.7 21.7,25.1 21.7,25.7L21.7,26.7Z" style="fill-rule:nonzero;"/>
        <path d="M1.1,30.6C1.5,30.8 1.9,30.8 2.2,30.5C2.7,30.1 3.5,29.7 4.6,29.9C5.1,30 5.5,29.8 5.7,29.3L5.7,29.2C6,28.7 5.7,28.1 5.2,28C3.3,27.6 1.8,28.3 0.9,29.1C0.4,29.5 0.5,30.3 1.1,30.6Z" style="fill-rule:nonzero;"/>
        <path d="M37.1,32.2C37.7,32.5 38.3,32.2 38.5,31.6C38.9,30.1 38.6,28.9 38.2,28.1C37.9,27.5 37,27.4 36.6,27.9C36.3,28.2 36.3,28.6 36.5,29C36.7,29.4 36.9,30.1 36.6,31.1C36.5,31.5 36.7,32 37.1,32.2Z" style="fill-rule:nonzero;"/>
        <path d="M30.5,33.5C31.2,33.8 31.9,33.3 31.9,32.6C31.9,32.2 31.7,31.8 31.3,31.7C30.9,31.5 30.3,31.1 29.9,30.2C29.7,29.8 29.2,29.5 28.7,29.6C28.1,29.8 27.8,30.4 28,31C28.7,32.5 29.7,33.2 30.5,33.5Z" style="fill-rule:nonzero;"/>
        <path d="M10.5,33.9C11.3,33.6 12.3,32.9 13,31.4C13.3,30.8 13,30.2 12.3,30C11.8,29.9 11.3,30.1 11.1,30.6C10.7,31.5 10.1,31.9 9.7,32.1C9.3,32.3 9.1,32.6 9.1,33C9.2,33.7 9.9,34.2 10.5,33.9Z" style="fill-rule:nonzero;"/>
        <path d="M39.3,35.4C38.9,36.2 38,37.2 36.7,37.2C35.5,37.2 34.6,36.8 34.1,36.5C34.3,36 33.9,35.4 33.3,35.2C32.9,35.1 32.5,35.3 32.3,35.6C32,36.1 31.3,36.8 29.8,36.9C28.4,37 27.6,36.5 27.3,36C27,35.7 26.6,35.6 26.2,35.7C25.7,35.8 25.5,36.2 25.5,36.7C25.5,36.9 25.6,37.1 25.7,37.3C25.7,37.4 25.8,37.4 25.8,37.5C24.9,37.9 23.6,38.2 21.9,37.7C22.2,37.2 22,36.5 21.4,36.4L21.2,36.4C20.8,36.3 20.4,36.5 20.2,36.8C19.8,37.4 19,38.1 17.5,38C15.6,37.8 14.8,36.9 14.5,36.5C14.5,36.1 14.2,35.7 13.8,35.6C13.4,35.5 13,35.6 12.7,35.9C12.3,36.4 11.6,37 10.1,36.8C8.6,36.6 7.9,36 7.6,35.5C7.4,35.2 7,35 6.6,35.1C6,35.2 5.7,35.8 5.8,36.4C5.3,36.7 4.3,37.2 3,37C1.2,36.8 0.1,34.9 0,34.7L0,37.7C0.7,38.3 1.7,38.8 2.8,38.9L3.4,38.9C5.1,38.9 6.4,38.2 7.2,37.6C7.9,38.1 8.7,38.4 10,38.6L10.6,38.6C11.7,38.6 12.5,38.3 13.2,37.9C13.9,38.7 15.1,39.7 17.3,39.8L17.8,39.8C18.8,39.8 19.7,39.5 20.3,39.1C21.4,39.6 22.5,39.8 23.5,39.8C25.4,39.8 26.8,39 27.5,38.6C28,38.8 28.6,38.9 29.3,38.9L29.9,38.9C31.1,38.8 32,38.4 32.7,37.9C33.5,38.4 34.8,39.1 36.7,39.1C38.2,39.1 39.2,38.4 40,37.7L40,33.9C39.9,34.4 39.6,35 39.4,35.3L39.3,35.4Z" style="fill-rule:nonzero;"/>
    </g>
</svg>
