<?xml version="1.0" encoding="UTF-8" standalone="no"?>
<!DOCTYPE svg PUBLIC "-//W3C//DTD SVG 1.1//EN" "http://www.w3.org/Graphics/SVG/1.1/DTD/svg11.dtd">
<svg width="100%" height="100%" viewBox="0 0 40 40" version="1.1" xmlns="http://www.w3.org/2000/svg" xmlns:xlink="http://www.w3.org/1999/xlink" xml:space="preserve" xmlns:serif="http://www.serif.com/" style="fill-rule:evenodd;clip-rule:evenodd;stroke-miterlimit:10;">
    <g transform="matrix(0.770553,0,0,0.770553,4.86743,3.95798)">
        <path d="M25.1,1.3L2.8,1.3C1.8,1.3 1.1,2.1 1.1,3L1.1,23.8C1.1,24.8 1.9,25.5 2.8,25.5L25,25.5C26,25.5 26.7,24.7 26.7,23.8L26.7,3.1C26.8,2.1 26,1.3 25.1,1.3Z" style="fill:none;fill-rule:nonzero;stroke:rgb(29,29,27);stroke-width:2px;"/>
    </g>
    <g transform="matrix(0.770553,0,0,0.770553,4.86743,3.95798)">
        <path d="M9.7,9.7L18.2,9.7" style="fill:none;fill-rule:nonzero;stroke:rgb(29,29,27);stroke-width:2px;"/>
    </g>
    <g transform="matrix(0.770553,0,0,0.770553,4.86743,3.95798)">
        <path d="M9.9,20.1L18,20.1" style="fill:none;fill-rule:nonzero;stroke:rgb(29,29,27);stroke-width:2px;"/>
    </g>
    <g transform="matrix(0.770553,0,0,0.770553,4.86743,3.95798)">
        <path d="M14,20.3L14,9.7" style="fill:none;fill-rule:nonzero;stroke:rgb(29,29,27);stroke-width:2px;"/>
    </g>
    <g transform="matrix(0.770553,0,0,0.770553,4.86743,3.95798)">
        <circle cx="14" cy="5.5" r="2" style="fill:rgb(29,29,27);"/>
    </g>
    <g transform="matrix(0.770553,0,0,0.770553,4.86743,3.95798)">
        <circle cx="34.3" cy="3.7" r="1.6" style="fill:rgb(29,29,27);"/>
    </g>
    <g transform="matrix(0.770553,0,0,0.770553,4.86743,3.95798)">
        <path d="M39,3.7L28.9,3.7" style="fill:none;fill-rule:nonzero;stroke:rgb(29,29,27);stroke-width:2px;"/>
    </g>
    <g transform="matrix(0.770553,0,0,0.770553,4.86743,3.95798)">
        <path d="M39,8.7L28.9,8.7" style="fill:none;fill-rule:nonzero;stroke:rgb(29,29,27);stroke-width:2px;"/>
    </g>
    <g transform="matrix(0.770553,0,0,0.770553,4.86743,3.95798)">
        <circle cx="32.2" cy="8.7" r="1.6" style="fill:rgb(29,29,27);"/>
    </g>
    <g transform="matrix(0.770553,0,0,0.770553,4.86743,3.95798)">
        <path d="M39,8.7L28.9,8.7" style="fill:none;fill-rule:nonzero;stroke:rgb(29,29,27);stroke-width:2px;"/>
    </g>
    <g transform="matrix(0.770553,0,0,0.770553,4.86743,3.95798)">
        <circle cx="36" cy="13.8" r="1.6" style="fill:rgb(29,29,27);"/>
    </g>
    <g transform="matrix(0.770553,0,0,0.770553,4.86743,3.95798)">
        <path d="M39,13.8L28.9,13.8" style="fill:none;fill-rule:nonzero;stroke:rgb(29,29,27);stroke-width:2px;"/>
    </g>
    <g>
        <g transform="matrix(0.770553,0,0,0.770553,4.86743,3.95798)">
            <circle cx="37.6" cy="36" r="1.6" style="fill:rgb(29,29,27);"/>
        </g>
        <g transform="matrix(0.770553,0,0,0.770553,4.86743,3.95798)">
            <circle cx="32.9" cy="36" r="1" style="fill:rgb(29,29,27);"/>
        </g>
        <g transform="matrix(0.770553,0,0,0.770553,4.86743,3.95798)">
            <path d="M32.9,35L36.6,35L36.6,37L32.9,37C32.3,37 31.9,36.5 31.9,36C31.9,35.4 32.4,35 32.9,35Z" style="fill:rgb(29,29,27);fill-rule:nonzero;"/>
        </g>
        <g transform="matrix(0.770553,0,0,0.770553,4.86743,3.95798)">
            <circle cx="32.9" cy="36" r="2.6" style="fill:none;stroke:rgb(29,29,27);stroke-width:2px;"/>
        </g>
    </g>
    <g>
        <g transform="matrix(0.770553,0,0,0.770553,4.86743,3.95798)">
            <circle cx="37.6" cy="28.2" r="1.6" style="fill:rgb(29,29,27);"/>
        </g>
        <g transform="matrix(0.770553,0,0,0.770553,4.86743,3.95798)">
            <circle cx="32.9" cy="28.2" r="1" style="fill:rgb(29,29,27);"/>
        </g>
        <g transform="matrix(0.770553,0,0,0.770553,4.86743,3.95798)">
            <path d="M32.9,27.2L36.6,27.2L36.6,29.2L32.9,29.2C32.3,29.2 31.9,28.7 31.9,28.2C31.9,27.7 32.4,27.2 32.9,27.2Z" style="fill:rgb(29,29,27);fill-rule:nonzero;"/>
        </g>
        <g transform="matrix(0.770553,0,0,0.770553,4.86743,3.95798)">
            <circle cx="32.9" cy="28.2" r="2.6" style="fill:none;stroke:rgb(29,29,27);stroke-width:2px;"/>
        </g>
    </g>
    <g>
        <g transform="matrix(0.770553,0,0,0.770553,4.86743,3.95798)">
            <circle cx="37.6" cy="20.1" r="1.6" style="fill:rgb(29,29,27);"/>
        </g>
        <g transform="matrix(0.770553,0,0,0.770553,4.86743,3.95798)">
            <circle cx="32.9" cy="20.1" r="1" style="fill:rgb(29,29,27);"/>
        </g>
        <g transform="matrix(0.770553,0,0,0.770553,4.86743,3.95798)">
            <path d="M32.9,19.1L36.6,19.1L36.6,21.1L32.9,21.1C32.3,21.1 31.9,20.6 31.9,20.1C31.9,19.5 32.4,19.1 32.9,19.1Z" style="fill:rgb(29,29,27);fill-rule:nonzero;"/>
        </g>
        <g transform="matrix(0.770553,0,0,0.770553,4.86743,3.95798)">
            <circle cx="32.9" cy="20.1" r="2.6" style="fill:none;stroke:rgb(29,29,27);stroke-width:2px;"/>
        </g>
    </g>
    <g transform="matrix(0.770553,0,0,0.770553,4.86743,3.95798)">
        <path d="M5,38.8L1.3,38.8C1.2,38.8 1.1,38.7 1.1,38.6L1.1,35.8C1.1,35.7 1.2,35.6 1.3,35.6L5,35.6C5.1,35.6 5.2,35.7 5.2,35.8L5.2,38.6C5.3,38.7 5.2,38.8 5,38.8Z" style="fill:none;fill-rule:nonzero;stroke:rgb(29,29,27);stroke-width:2px;"/>
    </g>
    <g transform="matrix(0.770553,0,0,0.770553,4.86743,3.95798)">
        <path d="M12,28.9L1.3,28.9C1.2,28.9 1.1,29 1.1,29.1L1.1,31.8C1.1,31.9 1.2,32 1.3,32L12,32C12.1,32 12.2,31.9 12.2,31.8L12.2,29.1C12.2,29 12.1,28.9 12,28.9Z" style="fill:none;fill-rule:nonzero;stroke:rgb(29,29,27);stroke-width:2px;"/>
    </g>
    <g transform="matrix(0.770553,0,0,0.770553,4.86743,3.95798)">
        <path d="M12,38.8L8.3,38.8C8.2,38.8 8.1,38.7 8.1,38.6L8.1,35.8C8.1,35.7 8.2,35.6 8.3,35.6L12,35.6C12.1,35.6 12.2,35.7 12.2,35.8L12.2,38.6C12.2,38.7 12.1,38.8 12,38.8Z" style="fill:none;fill-rule:nonzero;stroke:rgb(29,29,27);stroke-width:2px;"/>
    </g>
    <g transform="matrix(0.770553,0,0,0.770553,4.86743,3.95798)">
        <path d="M19,32.2L15.3,32.2C15.2,32.2 15.1,32.1 15.1,32L15.1,29.2C15.1,29.1 15.2,29 15.3,29L19,29C19.1,29 19.2,29.1 19.2,29.2L19.2,32C19.2,32.1 19.1,32.2 19,32.2Z" style="fill:none;fill-rule:nonzero;stroke:rgb(29,29,27);stroke-width:2px;"/>
    </g>
    <g transform="matrix(0.770553,0,0,0.770553,4.86743,3.95798)">
        <path d="M19,38.8L15.3,38.8C15.2,38.8 15.1,38.7 15.1,38.6L15.1,35.8C15.1,35.7 15.2,35.6 15.3,35.6L19,35.6C19.1,35.6 19.2,35.7 19.2,35.8L19.2,38.6C19.2,38.7 19.1,38.8 19,38.8Z" style="fill:none;fill-rule:nonzero;stroke:rgb(29,29,27);stroke-width:2px;"/>
    </g>
    <g transform="matrix(0.770553,0,0,0.770553,4.86743,3.95798)">
        <path d="M25.9,32.2L22.2,32.2C22.1,32.2 22,32.1 22,32L22,29.2C22,29.1 22.1,29 22.2,29L25.9,29C26,29 26.1,29.1 26.1,29.2L26.1,32C26.2,32.1 26.1,32.2 25.9,32.2Z" style="fill:none;fill-rule:nonzero;stroke:rgb(29,29,27);stroke-width:2px;"/>
    </g>
    <g transform="matrix(0.770553,0,0,0.770553,4.86743,3.95798)">
        <path d="M25.9,38.8L22.2,38.8C22.1,38.8 22,38.7 22,38.6L22,35.8C22,35.7 22.1,35.6 22.2,35.6L25.9,35.6C26,35.6 26.1,35.7 26.1,35.8L26.1,38.6C26.2,38.7 26.1,38.8 25.9,38.8Z" style="fill:none;fill-rule:nonzero;stroke:rgb(29,29,27);stroke-width:2px;"/>
    </g>
</svg>
